<?xml version="1.0" encoding="utf-8"?><!-- Uploaded to: SVG Repo, www.svgrepo.com, Generator: SVG Repo Mixer Tools -->
<svg width="800px" height="800px" viewBox="0 0 24 24" fill="none" xmlns="http://www.w3.org/2000/svg">
<path fill-rule="evenodd" clip-rule="evenodd" d="M12 3C10.3432 3 9.00005 4.34315 9.00005 6H15C15 4.34315 13.6569 3 12 3ZM7.00005 6C7.00005 3.23858 9.23863 1 12 1C14.7615 1 17 3.23858 17 6H16.3441C16.7794 6.00005 17.1599 6.0013 17.4791 6.026C17.8369 6.05369 18.1919 6.11475 18.5417 6.27628C19.0471 6.50961 19.4776 6.87893 19.785 7.34294C19.9979 7.66418 20.1122 8.00569 20.194 8.35514C20.2709 8.68375 20.3324 9.08359 20.4031 9.54318L20.8541 12.4751C21.0468 13.7273 21.2014 14.7319 21.2546 15.5469C21.3091 16.3818 21.2669 17.1241 20.9938 17.8221C20.5817 18.8752 19.8247 19.7575 18.8465 20.325C18.1981 20.7011 17.4709 20.8556 16.6375 20.9287C15.8239 21 14.8074 21 13.5406 21H10.4595C9.19267 21 8.17621 21 7.36265 20.9287C6.52917 20.8556 5.80196 20.7011 5.15361 20.325C4.17539 19.7575 3.41842 18.8752 3.00631 17.8221C2.73317 17.1241 2.69104 16.3818 2.74554 15.5469C2.79873 14.732 2.9533 13.7273 3.14594 12.4752L3.59703 9.54315C3.66772 9.08358 3.72921 8.68375 3.80611 8.35514C3.88789 8.00569 4.0022 7.66418 4.21506 7.34294C4.52251 6.87893 4.953 6.50961 5.45837 6.27628C5.80824 6.11475 6.16316 6.05369 6.52098 6.026C6.84022 6.0013 7.22073 6.00005 7.656 6H7.00005ZM6.67528 8.02004C6.43801 8.0384 6.34578 8.06944 6.29671 8.09209C6.12826 8.16987 5.98476 8.29298 5.88228 8.44765C5.85243 8.4927 5.80772 8.57914 5.7535 8.81085C5.69635 9.05506 5.64603 9.3776 5.56836 9.88243L5.12984 12.7328C4.9284 14.0422 4.7881 14.9601 4.74129 15.6772C4.69513 16.3844 4.74974 16.789 4.86878 17.0932C5.11605 17.7251 5.57023 18.2545 6.15717 18.595C6.43973 18.7589 6.83136 18.8744 7.53736 18.9363C8.25323 18.9991 9.18181 19 10.5066 19H13.4935C14.8183 19 15.7469 18.9991 16.4627 18.9363C17.1687 18.8744 17.5604 18.7589 17.8429 18.595C18.4299 18.2545 18.884 17.7251 19.1313 17.0932C19.2504 16.789 19.305 16.3844 19.2588 15.6772C19.212 14.9601 19.0717 14.0422 18.8703 12.7328L18.4317 9.88243C18.3541 9.37761 18.3037 9.05507 18.2466 8.81085C18.1924 8.57914 18.1477 8.4927 18.1178 8.44765C18.0153 8.29298 17.8718 8.16987 17.7034 8.09209C17.6543 8.06944 17.5621 8.0384 17.3248 8.02004C17.0748 8.00069 16.7483 8 16.2376 8H7.76255C7.25178 8 6.92534 8.00069 6.67528 8.02004Z" fill="#272727"/>
</svg>
